<?xml version="1.0" encoding="utf-8"?>
<!-- Generator: Adobe Illustrator 16.0.0, SVG Export Plug-In . SVG Version: 6.00 Build 0)  -->
<!DOCTYPE svg PUBLIC "-//W3C//DTD SVG 1.1//EN" "http://www.w3.org/Graphics/SVG/1.1/DTD/svg11.dtd">
<svg version="1.1" id="Layer_1" xmlns="http://www.w3.org/2000/svg" xmlns:xlink="http://www.w3.org/1999/xlink" x="0px" y="0px"
	 width="792px" height="612px" viewBox="0 0 792 612" enable-background="new 0 0 792 612" xml:space="preserve">
<path fill="#F2985A" d="M684.275,547.771c0,35.489-28.769,64.25-64.25,64.25H136.505c-35.487,0-64.255-28.761-64.255-64.25V64.25
	C72.25,28.768,101.018,0,136.505,0h483.521c35.481,0,64.25,28.768,64.25,64.25V547.771z"/>
<path fill="none" stroke="#FFFFFF" stroke-width="3" stroke-miterlimit="10" d="M377.364,0"/>
<path fill="none" stroke="#FFFFFF" stroke-width="3" stroke-miterlimit="10" d="M377.364,238.007"/>
<path fill="none" stroke="#FFFFFF" stroke-width="3" stroke-miterlimit="10" d="M377.364,0"/>
<path fill="none" stroke="#FFFFFF" stroke-width="3" stroke-miterlimit="10" d="M503.074,291.067"/>
<path fill="#FFFFFF" d="M499.648,289.734l-132.814-72.073l0,0c0,0-132.811,72.073-132.803,72.073l132.815,72.072l0,0
	L499.648,289.734z"/>
<polyline fill="#FFFFFF" points="382.781,539.387 382.781,384.556 518.013,312.273 518.013,467.082 518.245,467.159 
	383.013,539.449 "/>
<polyline fill="#FFFFFF" points="354.306,539.387 354.306,384.556 219.069,312.273 219.069,467.082 218.841,467.159 
	354.073,539.449 "/>
<line fill="none" stroke="#FFFFFF" stroke-width="3" stroke-miterlimit="10" x1="241.555" y1="293.004" x2="366.834" y2="1.519"/>
<line fill="none" stroke="#FFFFFF" stroke-width="3" stroke-miterlimit="10" x1="366.834" y1="239.534" x2="366.834" y2="1.519"/>
<line fill="none" stroke="#FFFFFF" stroke-width="3" stroke-miterlimit="10" x1="492.552" y1="292.585" x2="366.834" y2="1.519"/>
<g>
	<path fill="#F2985A" d="M286.568,369.765c5.718,3.122,11.115,7.517,16.182,13.165c5.06,5.647,9.479,12.018,13.246,19.098
		c3.766,7.083,6.722,14.56,8.879,22.433c2.166,7.887,3.243,15.643,3.243,23.282c0,7.105-0.899,13.242-2.712,18.417
		c-1.805,5.185-4.238,9.313-7.298,12.397c-3.061,3.083-6.645,5.091-10.759,5.989c-4.114,0.906-8.477,0.659-13.09-0.721
		c-4.625-1.387-9.367-3.874-14.229-7.47c-4.87-3.595-9.607-8.469-14.222-14.605l0.004,77.219l-20.772-11.344l-0.011-125.263
		c0-7.642,1.073-14.219,3.234-19.743c2.158-5.517,5.118-9.77,8.883-12.738c3.754-2.975,8.171-4.509,13.238-4.634
		C275.449,365.139,280.842,366.643,286.568,369.765z M307.341,436.398c0-3.75-0.551-7.608-1.651-11.568
		c-1.108-3.943-2.588-7.7-4.439-11.265c-1.859-3.549-4.072-6.733-6.629-9.555c-2.56-2.796-5.245-4.974-8.054-6.5
		c-2.91-1.58-5.622-2.37-8.124-2.333c-2.511,0.048-4.696,0.83-6.547,2.364c-1.86,1.525-3.336,3.673-4.44,6.415
		c-1.108,2.75-1.654,6.005-1.654,9.756c0,3.881,0.546,7.794,1.654,11.753c1.104,3.952,2.581,7.687,4.44,11.174
		c1.851,3.494,4.036,6.654,6.55,9.507c2.507,2.844,5.215,5.06,8.124,6.647c2.809,1.534,5.494,2.271,8.054,2.193
		c2.557-0.085,4.766-0.846,6.625-2.317c1.852-1.464,3.332-3.572,4.439-6.322C306.79,443.598,307.341,440.28,307.341,436.398z"/>
</g>
</svg>
